# xmcd
#
# Track frame offsets:
#	150
#	16009
#	33472
#	47063
#	60357
#	76262
#	93076
#	108796
#	125210
#	137678
#	155361
#	168111
#	183532
#	196859
#	210461
#	224594
#	237300
#	254255
#
# Disc length: 3579 seconds
# Revision: 5
# Processed by: cddbd v1.5.2PL0 Copyright (c) Steve Scherf et al.
# Submitted via: dBpowerAMP V12.0
#
DISCID=e90df912
DTITLE=Various Artist - Now That's What I Call Country  Vol.12
DYEAR=2019
DGENRE=Country Sampler
TTITLE0=Kacey Musgraves - Space Cowboy
TTITLE1=Luke Bryan - What Makes You Country
TTITLE2=Luke Combs - She Got The Best Of Me
TTITLE3=Kane Brown - Lose It
TTITLE4=Keith Urban - Never Comin Down
TTITLE5=Carrie Underwood - Love Wins
TTITLE6=Tim McGraw - Neon Church
TTITLE7=Pistol Annies - Best Years Of My Life
TTITLE8=Old Dominion - Hotel Key
TTITLE9=Dierks Bentley - Burning Man
TTITLE10=Jordan Davis - Take It From Me
TTITLE11=Russell Dickerson - Blue Tacoma
TTITLE12=Thomas Rhett - Sixteen
TTITLE13=Chris Young - Hangin On
TTITLE14=Dustin Lynch - Good Girl
TTITLE15=Jon Pardi - Night Shift
TTITLE16=Scotty McCreery - This Is It
TTITLE17=Midland - Burn Out
EXTD=
EXTT0=
EXTT1=
EXTT2=
EXTT3=
EXTT4=
EXTT5=
EXTT6=
EXTT7=
EXTT8=
EXTT9=
EXTT10=
EXTT11=
EXTT12=
EXTT13=
EXTT14=
EXTT15=
EXTT16=
EXTT17=
PLAYORDER=
